<svg width="88" height="19" viewBox="0 0 88 19" fill="none" xmlns="http://www.w3.org/2000/svg">
<path d="M0.792 9.552C0.792 14.592 4.296 18.12 9.264 18.12C13.272 18.12 16.296 15.888 17.256 12.24H12.744C12.048 13.68 10.776 14.4 9.216 14.4C6.696 14.4 4.968 12.528 4.968 9.552C4.968 6.576 6.696 4.704 9.216 4.704C10.776 4.704 12.048 5.424 12.744 6.864H17.256C16.296 3.216 13.272 0.959999 9.264 0.959999C4.296 0.959999 0.792 4.512 0.792 9.552ZM32.8733 11.304C32.8733 7.056 29.8493 4.416 25.9133 4.416C22.0013 4.416 18.9533 7.056 18.9533 11.304C18.9533 15.552 21.9293 18.192 25.8653 18.192C29.8013 18.192 32.8733 15.552 32.8733 11.304ZM23.1293 11.304C23.1293 9.024 24.4253 7.968 25.9133 7.968C27.3533 7.968 28.6973 9.024 28.6973 11.304C28.6973 13.56 27.3293 14.64 25.8653 14.64C24.3773 14.64 23.1293 13.56 23.1293 11.304ZM48.2745 4.608H44.1705V11.88C44.1705 13.704 43.1625 14.712 41.5785 14.712C40.0425 14.712 39.0105 13.704 39.0105 11.88V4.608H34.9305V12.432C34.9305 16.008 37.0185 18.144 40.1145 18.144C41.9145 18.144 43.3545 17.328 44.1705 16.176V18H48.2745V4.608ZM55.3264 11.784C55.3264 9.48 56.4544 8.808 58.3984 8.808H59.5264V4.464C57.7264 4.464 56.2624 5.424 55.3264 6.84V4.608H51.2224V18H55.3264V11.784ZM72.36 14.112C72.288 9.12 65.04 10.632 65.04 8.496C65.04 7.848 65.568 7.464 66.528 7.464C67.68 7.464 68.376 8.064 68.496 8.976H72.288C72.024 6.336 70.104 4.416 66.648 4.416C63.144 4.416 61.2 6.288 61.2 8.568C61.2 13.488 68.496 11.928 68.496 14.088C68.496 14.688 67.944 15.168 66.888 15.168C65.76 15.168 64.92 14.544 64.824 13.608H60.768C60.96 16.2 63.36 18.192 66.936 18.192C70.296 18.192 72.36 16.44 72.36 14.112ZM80.7748 7.704C82.1428 7.704 83.2948 8.544 83.2948 10.008H78.1588C78.3988 8.52 79.4308 7.704 80.7748 7.704ZM87.1828 13.56H82.8148C82.4788 14.28 81.8308 14.856 80.6788 14.856C79.3588 14.856 78.2788 14.04 78.1348 12.288H87.4228C87.4708 11.88 87.4948 11.472 87.4948 11.088C87.4948 7.008 84.7348 4.416 80.8228 4.416C76.8388 4.416 74.0548 7.056 74.0548 11.304C74.0548 15.552 76.8868 18.192 80.8228 18.192C84.1588 18.192 86.5348 16.176 87.1828 13.56Z" fill="#1F1F39"/>
</svg>
