<svg width="360" height="83" viewBox="0 0 360 83" fill="none" xmlns="http://www.w3.org/2000/svg">
<g clip-path="url(#clip0_21_137)">
<path d="M24.13 3.60443C38.47 -2.14557 52.2 -1.20557 64.92 7.79443C76.43 15.9244 81.92 27.3544 82.23 41.3744C59.07 45.5544 28.19 25.4444 24.13 3.60443Z" fill="#FF401B"/>
<path d="M79.46 56.5544C72.63 70.9544 62.3 79.6444 47.2 81.9144C32.39 84.1344 20.04 79.2044 10.15 67.7144C11.9 68.1144 13.65 68.5444 15.4 68.9344C29.85 72.0844 43.74 69.6644 57.4 64.6544C64.44 62.0244 71.53 59.4344 79.46 56.5544Z" fill="#FF401B"/>
<path d="M0 45.7844C7 48.5444 13.62 51.5844 20.49 53.7844C32.79 57.6744 45.39 57.7244 58.03 55.4544C65.03 54.2044 71.96 53.0144 78.93 51.8144C79.2646 51.7655 79.6061 51.8023 79.9226 51.9212C80.2392 52.0401 80.5204 52.2373 80.74 52.4944C80.1905 52.882 79.592 53.1947 78.96 53.4244C65.54 56.2944 52.21 59.8144 38.66 61.7544C26.38 63.5044 14.55 60.0744 3.34 54.8644C2.61404 54.5732 2.02718 54.0149 1.7 53.3044C0.999999 50.7444 0.52 48.1544 0 45.7844Z" fill="#FF401B"/>
<path d="M3.07002 25.4246C7.07002 28.7646 10.68 32.0246 14.55 34.9246C22.74 41.0746 31.55 46.5346 41.79 47.9246C50.13 49.0246 58.68 48.7346 67.13 48.8346C71.79 48.8846 76.46 48.4546 81.27 48.6446C80.782 48.9289 80.2571 49.1442 79.71 49.2846C66.04 50.8346 52.37 52.7046 38.58 50.7346C24.52 48.7346 12.58 42.3346 2.11002 32.8946C1.58871 32.1495 1.32852 31.2529 1.37002 30.3446C1.40679 29.6508 1.5801 28.9712 1.88002 28.3446C2.22002 27.4646 2.59002 26.6546 3.07002 25.4246Z" fill="#FF401B"/>
<path d="M81.34 45.5544C51.91 48.7544 28.01 42.0744 8.79004 15.5544L11.67 12.3044C19.78 23.7744 28.45 34.3044 41.46 39.9444C54.2 45.5544 67.74 45.8344 81.34 45.5544Z" fill="#FF401B"/>
<path d="M73.2699 43.3145C51.2699 43.4445 34.0999 34.7145 22.2699 15.9045C17.9699 9.0445 17.6599 8.38448 18.8599 6.34448C20.7999 9.41448 22.7099 12.2645 24.4299 15.2145C35.0999 33.4745 51.4299 42.1045 72.1399 43.1545C72.5193 43.1868 72.8965 43.2402 73.2699 43.3145Z" fill="#FF401B"/>
<path d="M114.625 56.6342H108.215V26.4542C111.585 25.6542 114.275 25.9842 116.435 29.2742C118.715 32.7442 121.575 35.8242 124.355 39.2742C127.075 35.8842 129.845 32.8642 132.085 29.5042C134.175 26.3542 136.755 25.5042 140.435 26.5042V56.6742H134.225V36.7042L124.365 48.9242L114.625 36.9242V56.6342Z" fill="black"/>
<path d="M300.615 26.5342C304.455 25.4742 306.985 26.4542 309.205 29.6442C312.745 34.7442 316.805 39.4942 321.205 45.0942V26.4342H327.695V56.3242C323.505 57.6342 322.265 57.2642 319.615 53.8942C315.615 48.8042 311.615 43.7242 307.175 38.0042V56.6442H300.615V26.5342Z" fill="black"/>
<path d="M262.135 41.2343C262.255 32.3543 269.755 25.3843 279.045 25.5243C288.335 25.6643 295.625 32.9543 295.415 41.7943C295.205 50.6343 287.755 57.6543 278.485 57.4843C269.215 57.3143 262.015 50.2243 262.135 41.2343ZM288.565 41.4443C288.581 40.1448 288.333 38.8556 287.836 37.6548C287.339 36.4539 286.604 35.3663 285.675 34.4577C284.745 33.5491 283.642 32.8384 282.43 32.3686C281.218 31.8987 279.924 31.6796 278.625 31.7243C277.313 31.692 276.007 31.9237 274.786 32.4056C273.565 32.8875 272.453 33.6098 271.517 34.5297C270.58 35.4495 269.838 36.5482 269.334 37.7604C268.83 38.9726 268.575 40.2736 268.584 41.5863C268.593 42.899 268.865 44.1966 269.385 45.402C269.905 46.6075 270.661 47.6962 271.61 48.6035C272.559 49.5108 273.68 50.2183 274.907 50.684C276.135 51.1497 277.443 51.364 278.755 51.3143C280.054 51.3362 281.345 51.0954 282.549 50.6064C283.753 50.1173 284.846 49.3901 285.762 48.4684C286.678 47.5467 287.399 46.4494 287.88 45.2424C288.362 44.0354 288.595 42.7435 288.565 41.4443Z" fill="black"/>
<path d="M353.935 44.1041H341.605V50.5741H357.785V56.6641H335.035V26.4341H357.375V32.3441H341.575V38.2441H353.935V44.1041Z" fill="black"/>
<path d="M208.645 56.6741H185.775V26.4341H208.165V32.2741H192.365V38.0841H204.625V43.9741H192.355V50.5641H208.645V56.6741Z" fill="black"/>
<path d="M215.405 49.3742C218.505 50.1542 221.275 51.2142 224.115 51.3742C225.325 51.4542 226.655 49.6642 227.935 48.7242C226.995 47.4942 226.295 45.8542 225.055 45.1342C223.055 43.9542 220.595 43.4642 218.405 42.5442C214.525 40.9142 212.655 38.0742 212.775 34.2342C212.83 32.4223 213.466 30.6761 214.59 29.2535C215.714 27.831 217.265 26.8075 219.015 26.3342C221.604 25.4164 224.4 25.2467 227.081 25.8445C229.762 26.4423 232.221 27.7835 234.175 29.7142L230.345 33.3242C227.715 32.6542 225.395 31.7242 223.035 31.6042C222.346 31.6803 221.689 31.9305 221.124 32.3312C220.559 32.7318 220.105 33.2697 219.805 33.8942C219.585 34.7942 220.865 36.5842 221.935 37.1842C224.075 38.3842 226.555 38.9842 228.845 39.9442C233.025 41.6842 234.845 44.3442 234.735 48.3442C234.635 52.0742 232.325 55.0942 228.445 56.5842C222.825 58.7242 215.515 57.0342 211.625 52.5842L215.405 49.3742Z" fill="black"/>
<path d="M260.715 26.3643V32.2143H252.145V56.6143H245.455V32.4043H237.025V26.4043L260.715 26.3643Z" fill="black"/>
<path d="M168.035 50.6043H181.935V56.6043H161.645V26.3843H168.035V50.6043Z" fill="black"/>
<path d="M147.935 26.3442H154.145V56.6842H147.935V26.3442Z" fill="black"/>
</g>
<defs>
<clipPath id="clip0_21_137">
<rect width="360" height="83" fill="white"/>
</clipPath>
</defs>
</svg>
