<svg width="83" height="83" viewBox="0 0 83 83" fill="none" xmlns="http://www.w3.org/2000/svg">
<g clip-path="url(#clip0_21_159)">
<path d="M24.13 3.60443C38.47 -2.14557 52.2 -1.20557 64.92 7.79443C76.43 15.9244 81.92 27.3544 82.23 41.3744C59.07 45.5544 28.19 25.4444 24.13 3.60443Z" fill="#FF401B"/>
<path d="M79.46 56.5544C72.63 70.9544 62.3 79.6444 47.2 81.9144C32.39 84.1344 20.04 79.2044 10.15 67.7144C11.9 68.1144 13.65 68.5444 15.4 68.9344C29.85 72.0844 43.74 69.6644 57.4 64.6544C64.44 62.0244 71.53 59.4344 79.46 56.5544Z" fill="#FF401B"/>
<path d="M0 45.7844C7 48.5444 13.62 51.5844 20.49 53.7844C32.79 57.6744 45.39 57.7244 58.03 55.4544C65.03 54.2044 71.96 53.0144 78.93 51.8144C79.2646 51.7655 79.6061 51.8023 79.9226 51.9212C80.2392 52.0401 80.5204 52.2373 80.74 52.4944C80.1905 52.882 79.592 53.1947 78.96 53.4244C65.54 56.2944 52.21 59.8144 38.66 61.7544C26.38 63.5044 14.55 60.0744 3.34 54.8644C2.61404 54.5732 2.02718 54.0149 1.7 53.3044C0.999999 50.7444 0.52 48.1544 0 45.7844Z" fill="#FF401B"/>
<path d="M3.07002 25.4246C7.07002 28.7646 10.68 32.0246 14.55 34.9246C22.74 41.0746 31.55 46.5346 41.79 47.9246C50.13 49.0246 58.68 48.7346 67.13 48.8346C71.79 48.8846 76.46 48.4546 81.27 48.6446C80.782 48.9289 80.2571 49.1442 79.71 49.2846C66.04 50.8346 52.37 52.7046 38.58 50.7346C24.52 48.7346 12.58 42.3346 2.11002 32.8946C1.58871 32.1495 1.32852 31.2529 1.37002 30.3446C1.40679 29.6508 1.5801 28.9712 1.88002 28.3446C2.22002 27.4646 2.59002 26.6546 3.07002 25.4246Z" fill="#FF401B"/>
<path d="M81.34 45.5544C51.91 48.7544 28.01 42.0744 8.79004 15.5544L11.67 12.3044C19.78 23.7744 28.45 34.3044 41.46 39.9444C54.2 45.5544 67.74 45.8344 81.34 45.5544Z" fill="#FF401B"/>
<path d="M73.2699 43.3145C51.2699 43.4445 34.0999 34.7145 22.2699 15.9045C17.9699 9.0445 17.6599 8.38448 18.8599 6.34448C20.7999 9.41448 22.7099 12.2645 24.4299 15.2145C35.0999 33.4745 51.4299 42.1045 72.1399 43.1545C72.5193 43.1868 72.8965 43.2402 73.2699 43.3145Z" fill="#FF401B"/>
</g>
<defs>
<clipPath id="clip0_21_159">
<rect width="83" height="83" fill="white"/>
</clipPath>
</defs>
</svg>
